{
  "accessors": [
    {
      "bufferView": 1,
      "componentType": 5126,
      "count": 19378,
      "max": [
        0.9514466524124146,
        0.9514461159706116,
        4.718198299407959
      ],
      "min": [
        -0.9514461159706116,
        -0.9514468908309937,
        -0.07731315493583679
      ],
      "type": "VEC3"
    },
    {
      "bufferView": 1,
      "byteOffset": 232536,
      "componentType": 5126,
      "count": 19378,
      "max": [
        1.0,
        1.0,
        1.0
      ],
      "min": [
        -1.0,
        -1.0,
        -1.0
      ],
      "type": "VEC3"
    },
    {
      "bufferView": 0,
      "componentType": 5125,
      "count": 116256,
      "type": "SCALAR"
    }
  ],
  "asset": {
    "extras": {
      "author": "olaurent (https://sketchfab.com/olaurent)",
      "license": "CC-BY-4.0 (http://creativecommons.org/licenses/by/4.0/)",
      "source": "https://sketchfab.com/3d-models/screw-33c8cae1bbf0438da66f40f3120333ee",
      "title": "Screw"
    },
    "generator": "Sketchfab-16.14.0",
    "version": "2.0"
  },
  "bufferViews": [
    {
      "buffer": 0,
      "byteLength": 465024,
      "name": "floatBufferViews",
      "target": 34963
    },
    {
      "buffer": 0,
      "byteLength": 465072,
      "byteOffset": 465024,
      "byteStride": 12,
      "name": "floatBufferViews",
      "target": 34962
    }
  ],
  "buffers": [
    {
      "byteLength": 930096,
      "uri": "scene.bin"
    }
  ],
  "extensionsUsed": [
    "KHR_materials_specular"
  ],
  "materials": [
    {
      "doubleSided": true,
      "extensions": {
        "KHR_materials_specular": {
          "specularColorFactor": [
            1.0,
            1.0,
            1.0
          ],
          "specularFactor": 0.255
        }
      },
      "name": "AluminiumBlack",
      "pbrMetallicRoughness": {
        "baseColorFactor": [
          0.046559472231579496,
          0.046158563011196294,
          0.046158563011196294,
          1.0
        ],
        "roughnessFactor": 0.264
      }
    }
  ],
  "meshes": [
    {
      "name": "Vert.002_AluminiumBlack_0",
      "primitives": [
        {
          "attributes": {
            "NORMAL": 1,
            "POSITION": 0
          },
          "indices": 2,
          "material": 0,
          "mode": 4
        }
      ]
    }
  ],
  "nodes": [
    {
      "children": [
        1
      ],
      "matrix": [
        1.0,
        0.0,
        0.0,
        0.0,
        0.0,
        2.220446049250313e-16,
        -1.0,
        0.0,
        0.0,
        1.0,
        2.220446049250313e-16,
        0.0,
        0.0,
        0.0,
        0.0,
        1.0
      ],
      "name": "Sketchfab_model"
    },
    {
      "children": [
        2
      ],
      "matrix": [
        0.009999999776482582,
        0.0,
        0.0,
        0.0,
        0.0,
        0.0,
        0.009999999776482582,
        0.0,
        0.0,
        -0.009999999776482582,
        0.0,
        0.0,
        0.0,
        0.0,
        0.0,
        1.0
      ],
      "name": "9f1408b635ca46fa85cd65ed57c3a806.fbx"
    },
    {
      "children": [
        3
      ],
      "name": "RootNode"
    },
    {
      "children": [
        4
      ],
      "matrix": [
        100.0,
        0.0,
        0.0,
        0.0,
        0.0,
        -1.629206793918314e-05,
        -99.99999999999868,
        0.0,
        0.0,
        99.99999999999868,
        -1.629206793918314e-05,
        0.0,
        0.0,
        0.0,
        0.0,
        1.0
      ],
      "name": "Vert.002"
    },
    {
      "mesh": 0,
      "name": "Vert.002_AluminiumBlack_0"
    }
  ],
  "scene": 0,
  "scenes": [
    {
      "name": "Sketchfab_Scene",
      "nodes": [
        0
      ]
    }
  ]
}
